<?xml version="1.0" encoding="UTF-8" standalone="no"?>
<!-- Created with Inkscape (http://www.inkscape.org/) -->

<svg
   xmlns:dc="http://purl.org/dc/elements/1.1/"
   xmlns:cc="http://creativecommons.org/ns#"
   xmlns:rdf="http://www.w3.org/1999/02/22-rdf-syntax-ns#"
   xmlns:svg="http://www.w3.org/2000/svg"
   xmlns="http://www.w3.org/2000/svg"
   xmlns:sodipodi="http://sodipodi.sourceforge.net/DTD/sodipodi-0.dtd"
   xmlns:inkscape="http://www.inkscape.org/namespaces/inkscape"
   width="1052.3622"
   height="744.09448"
   id="svg2"
   version="1.1"
   inkscape:version="0.47 r22583"
   sodipodi:docname="chorisia.svg">
  <sodipodi:namedview
     id="base"
     pagecolor="#ffffff"
     bordercolor="#666666"
     borderopacity="1.0"
     inkscape:pageopacity="0.0"
     inkscape:pageshadow="2"
     inkscape:zoom="1"
     inkscape:cx="558.64964"
     inkscape:cy="495.94639"
     inkscape:document-units="px"
     inkscape:current-layer="layer1"
     showgrid="false"
     inkscape:window-width="1150"
     inkscape:window-height="838"
     inkscape:window-x="0"
     inkscape:window-y="0"
     inkscape:window-maximized="1" />
  <defs
     id="defs4">
    <inkscape:perspective
       id="perspective10"
       inkscape:persp3d-origin="372.04724 : 350.78739 : 1"
       inkscape:vp_z="744.09448 : 526.18109 : 1"
       inkscape:vp_y="0 : 1000 : 0"
       inkscape:vp_x="0 : 526.18109 : 1"
       sodipodi:type="inkscape:persp3d" />
    <inkscape:perspective
       sodipodi:type="inkscape:persp3d"
       inkscape:vp_x="0 : 0.5 : 1"
       inkscape:vp_y="0 : 1000 : 0"
       inkscape:vp_z="1 : 0.5 : 1"
       inkscape:persp3d-origin="0.5 : 0.33333333 : 1"
       id="perspective2824" />
    <inkscape:perspective
       id="perspective3650"
       inkscape:persp3d-origin="0.5 : 0.33333333 : 1"
       inkscape:vp_z="1 : 0.5 : 1"
       inkscape:vp_y="0 : 1000 : 0"
       inkscape:vp_x="0 : 0.5 : 1"
       sodipodi:type="inkscape:persp3d" />
    <inkscape:perspective
       id="perspective3613"
       inkscape:persp3d-origin="0.5 : 0.33333333 : 1"
       inkscape:vp_z="1 : 0.5 : 1"
       inkscape:vp_y="0 : 1000 : 0"
       inkscape:vp_x="0 : 0.5 : 1"
       sodipodi:type="inkscape:persp3d" />
  </defs>
  <metadata
     id="metadata7">
    <rdf:RDF>
      <cc:Work
         rdf:about="">
        <dc:format>image/svg+xml</dc:format>
        <dc:type
           rdf:resource="http://purl.org/dc/dcmitype/StillImage" />
        <dc:title />
      </cc:Work>
    </rdf:RDF>
  </metadata>
  <g
     id="layer1"
     inkscape:groupmode="layer"
     inkscape:label="Capa 1"
     style="display:inline"
     transform="translate(0,-308.2677)">
    <path
       style="opacity:0.6;fill:#916f6f;fill-opacity:1;fill-rule:nonzero;stroke:#000000;stroke-width:2;stroke-miterlimit:4;stroke-opacity:1;stroke-dasharray:none"
       d="m 515.18736,618.64665 c -0.17432,-20.18686 -9.32252,-44.92946 -32.89768,-45.8992 -11.60337,-2.36536 -45.89675,1.32112 -27.61437,-18.36934 8.55887,-13.85415 8.61728,-53.45626 -14.6592,-46.46452 -20.15112,1.58565 -31.28802,23.20112 -51.99636,23.43372 -15.9842,0.0105 -30.00344,4.14386 -43.32358,1.95127 7.30105,-15.59678 -28.94466,-7.71819 -22.57388,-25.9645 8.95161,4.50478 25.05677,14.38988 38.84708,14.37051 16.56983,0.21666 38.09443,2.47324 48.0598,-12.99466 9.44446,-11.83642 47.12466,-13.22555 24.56477,-30.40671 -16.03423,-8.67972 -1.0801,-28.23937 -21.01901,-34.56149 -14.61653,-17.50855 -36.49732,-0.7645 -53.06401,-9.09834 -16.54185,-1.48533 -2.80143,-18.39598 -7.32119,-29.59453 -1.73524,-8.27993 19.41893,-17.41516 17.14692,-2.14862 -2.51796,13.95218 -6.18854,29.08736 14.06678,24.7628 12.93729,-0.78053 23.79019,-22.66193 26.97725,-0.92168 5.09937,9.01312 31.02556,17.98924 28.14558,21.22312 -11.70342,-18.08299 -25.25259,-35.20542 -41.92689,-48.97447 12.87619,-1.14046 25.76438,-8.29015 27.30352,9.75963 1.77272,1.44519 28.0682,30.09876 40.1407,63.86232 13.57589,37.96816 6.65573,81.2758 27.34827,77.94629 16.74436,-2.69423 -6.44711,-67.30424 3.59348,-82.22951 4.7622,-7.07898 31.88997,-50.1089 39.76626,-50.84258 27.52965,-2.5644 32.728,-16.61483 37.87435,-11.67862 4.91865,5.68609 -33.07697,18.41514 -40.08446,29.46423 -12.56057,19.80493 -26.80427,33.33272 -25.49297,65.58441 1.3113,32.2517 28.3764,78.63027 36.20722,75.69285 7.14464,-2.68002 48.92965,-16.68114 55.10033,-17.05165 4.40113,-0.26425 43.38742,7.10765 37.61107,-15.3426 -3.94481,-29.73388 -14.29723,-62.16753 -0.54395,-90.86549 0.47556,-11.52308 22.82012,-15.69466 11.58319,-4.2442 -16.73346,18.66166 -10.98141,46.52746 -7.13698,68.97129 0.0875,16.24309 18.78573,36.55798 5.13825,49.84723 -28.2682,9.71435 -62.27465,4.20683 -86.47092,24.8946 -14.51379,10.19667 8.39356,21.25027 -4.86007,32.3793 -0.57874,18.57426 14.67985,34.36554 20.04582,52.03515 12.15194,26.30453 16.27624,56.25921 8.54281,84.46915 -4.97852,20.15562 -9.5705,42.54882 -18.44622,60.43022 -13.26429,1.61322 -26.52859,3.22645 -39.79288,4.83967 -12.4296,-37.20355 -27.98157,-75.24025 -26.09469,-115.13381 2.48292,-31.53505 9.50136,-62.53193 17.25586,-93.13124 z"
       id="rect2830"
       sodipodi:nodetypes="cccccccccccccccccccsssscszssccccccccccccc" />
    <path
       style="opacity:0.6;fill:#008000;fill-opacity:1;fill-rule:nonzero;stroke:#000000;stroke-width:2;stroke-linecap:round;stroke-linejoin:round;stroke-miterlimit:4;stroke-opacity:1;stroke-dasharray:none;stroke-dashoffset:0"
       d="m 324.75736,482.65196 c -6.26706,-0.068 -12.52671,1.7337 -17.875,5.3125 -8.36857,2.29659 -15.34182,7.95069 -19.375,15.4375 -2.81558,-2.23591 -6.37529,-3.5625 -10.25,-3.5625 -9.1127,0 -16.5,7.3873 -16.5,16.5 0,9.1127 7.3873,16.5 16.5,16.5 0.85432,0 1.68068,-0.0936 2.5,-0.21875 -0.001,0.0733 0,0.14515 0,0.21875 0,6.07513 4.92487,11 11,11 1.66669,0 3.24065,-0.39909 4.65625,-1.0625 5.41719,4.40092 12.32025,7.0625 19.84375,7.0625 6.49895,0 12.54641,-1.97101 17.5625,-5.34375 1.05779,-0.29354 2.12986,-0.62666 3.15625,-1.03125 0.71077,3.52318 2.57074,6.84607 5.53125,9.34375 6.96504,5.87617 17.37383,4.99629 23.25,-1.96875 5.87617,-6.96504 4.99629,-17.37383 -1.96875,-23.25 -0.65297,-0.55089 -1.35555,-1.03611 -2.0625,-1.46875 0.0489,-0.0557 0.10826,-0.0994 0.15625,-0.15625 3.91745,-4.64336 3.29961,-11.58255 -1.34375,-15.5 -1.27395,-1.07479 -2.70891,-1.78174 -4.21875,-2.1875 -1.30024,-6.86249 -4.87041,-13.33255 -10.625,-18.1875 -5.81739,-4.90794 -12.87805,-7.36095 -19.9375,-7.4375 z"
       id="path3599" />
    <path
       id="path2829"
       d="m 651.15819,478.58533 c 5.40638,-3.17044 9.84316,-7.93953 12.58329,-13.76222 5.98933,-6.27975 9.05301,-14.71829 8.65263,-23.21291 3.56508,0.46579 7.29947,-0.23115 10.62039,-2.22735 7.81028,-4.69477 10.33591,-14.83211 5.64114,-22.64239 -4.69476,-7.81028 -14.8321,-10.3359 -22.64238,-5.64114 -0.73222,0.44014 -1.39225,0.94609 -2.02999,1.47546 -0.0369,-0.0633 -0.0748,-0.1244 -0.1127,-0.18748 -3.12984,-5.20686 -9.88807,-6.89061 -15.09492,-3.76077 -1.42848,0.85867 -2.57188,2.0116 -3.44338,3.3095 -6.91025,-0.98105 -14.19792,0.29416 -20.64613,4.17018 -5.5701,3.34819 -9.73779,8.15308 -12.29937,13.62801 -0.75537,0.79655 -1.5026,1.63438 -2.17385,2.50993 -2.42429,-2.65345 -5.73035,-4.54319 -9.55451,-5.15867 -8.99691,-1.44801 -17.46473,4.66861 -18.91275,13.66552 -1.44801,8.99691 4.66861,17.46474 13.66552,18.91275 0.84346,0.13575 1.6956,0.18966 2.5244,0.19625 -0.0132,0.0729 -0.0416,0.14097 -0.0534,0.21442 -0.96534,5.99794 3.13919,11.62705 9.13713,12.5924 1.6456,0.26485 3.23968,0.13149 4.74277,-0.2986 4.64989,5.21181 11.0431,8.91783 18.47644,10.11419 7.51447,1.20943 14.82976,-0.32573 20.91969,-3.89708 z"
       style="opacity:0.6;fill:#008000;fill-opacity:1;fill-rule:nonzero;stroke:#000000;stroke-width:2;stroke-linecap:round;stroke-linejoin:round;stroke-miterlimit:4;stroke-opacity:1;stroke-dasharray:none;stroke-dashoffset:0" />
    <path
       style="opacity:0.6;fill:#008000;fill-opacity:1;fill-rule:nonzero;stroke:#000000;stroke-width:2;stroke-linecap:round;stroke-linejoin:round;stroke-miterlimit:4;stroke-opacity:1;stroke-dasharray:none;stroke-dashoffset:0"
       d="m 468.22549,340.37863 c 13.24074,6.98837 24.10684,17.50052 30.81769,30.33506 14.66843,13.84199 22.17168,32.44245 21.19111,51.16652 8.73122,-1.0267 17.8771,0.50951 26.01035,4.90959 19.12812,10.34834 25.31362,32.69334 13.81568,49.90897 -11.49791,17.21564 -36.32522,22.78267 -55.45334,12.43435 -1.79327,-0.97017 -3.40975,-2.08539 -4.97164,-3.25224 -0.0904,0.13953 -0.1832,0.2742 -0.27602,0.41324 -7.66528,11.4771 -24.21682,15.18847 -36.96889,8.2896 -3.49849,-1.8927 -6.29879,-4.43403 -8.43317,-7.29489 -16.92386,2.16246 -34.77206,-0.6484 -50.56433,-9.19203 -13.64172,-7.38017 -23.84878,-17.97124 -30.12234,-30.03923 -1.84998,-1.75577 -3.68001,-3.60255 -5.32397,-5.53246 -5.93732,5.84881 -14.03416,10.01423 -23.3999,11.37089 -22.0343,3.19174 -42.77279,-10.29068 -46.31913,-30.12192 -3.54631,-19.83123 11.43387,-38.49625 33.46816,-41.688 2.06572,-0.29922 4.15269,-0.41805 6.1825,-0.43258 -0.0323,-0.16068 -0.10185,-0.31073 -0.13078,-0.47263 -2.36421,-13.22083 7.68817,-25.62866 22.3777,-27.7565 4.03023,-0.5838 7.93428,-0.28984 11.6155,0.65817 11.38802,-11.48801 27.04561,-19.65692 45.25056,-22.29397 18.40365,-2.66585 36.31949,0.71798 51.23431,8.59006 z"
       id="path2831" />
  </g>
</svg>
